<?xml version="1.0" encoding="utf-8"?>
<!-- Generator: Adobe Illustrator 13.0.0, SVG Export Plug-In . SVG Version: 6.00 Build 14948)  -->
<!DOCTYPE svg PUBLIC "-//W3C//DTD SVG 1.0//EN" "http://www.w3.org/TR/2001/REC-SVG-20010904/DTD/svg10.dtd">
<svg version="1.0" xmlns="http://www.w3.org/2000/svg" xmlns:xlink="http://www.w3.org/1999/xlink" x="0px" y="0px"
	 width="1897.3px" height="456.5px" viewBox="0 0 1897.3 456.5" enable-background="new 0 0 1897.3 456.5" xml:space="preserve">
<g id="Layer_2" xmlns:cc="http://creativecommons.org/ns#" xmlns:rdf="http://www.w3.org/1999/02/22-rdf-syntax-ns#" xmlns:svg="http://www.w3.org/2000/svg" xmlns:dc="http://purl.org/dc/elements/1.1/">
	<g id="g236">
		<path id="path238" fill="#FEE600" d="M1592.348,350.128c0-0.004-29.474-36.383-46.478-57.533
			c-5.688-7.08-9.908-12.356-11.392-14.295c-2.062-2.718-3.532-4.676-4.497-5.637c-1.016-0.978-1.17-1.03-1.936-1.301
			c-0.53-0.159-1.483-0.332-3.112-0.332h-69.595c-2.265,0-4.479-0.915-6.078-2.517c-1.6-1.6-2.517-3.814-2.517-6.08v-10.234h-60.587
			c-2.266,0-4.479-0.918-6.08-2.517c-1.601-1.6-2.519-3.815-2.519-6.079v-46.668c0-2.264,0.918-4.479,2.519-6.08
			s3.814-2.517,6.08-2.517l61.405-0.001V186.7h-63.043c-2.264,0-4.479-0.917-6.079-2.517c-1.6-1.6-2.518-3.814-2.518-6.079v-44.212
			c0-2.264,0.918-4.478,2.518-6.079c1.601-1.602,3.815-2.518,6.079-2.518l61.404-0.001v-1.637h-73.688v138.775
			c0,2.266-0.916,4.477-2.517,6.078c-1.601,1.601-3.813,2.519-6.078,2.519h-52.809c-2.264,0-4.479-0.915-6.08-2.517
			c-1.599-1.6-2.517-3.814-2.517-6.08v-155.15h-3.684v155.15c0,2.266-0.915,4.477-2.518,6.078c-1.601,1.601-3.814,2.519-6.076,2.519
			h-128.951c-2.267,0-4.479-0.915-6.081-2.517c-1.601-1.6-2.519-3.814-2.519-6.08V151.496c0-2.264,0.918-4.479,2.519-6.08
			c1.602-1.602,3.814-2.519,6.081-2.519h67.135V61.434h-83.103v201.818c0,2.265-0.918,4.479-2.519,6.08
			c-1.599,1.599-3.813,2.517-6.078,2.517h-100.295c-2.266,0-4.478-0.916-6.078-2.517c-1.603-1.602-2.519-3.815-2.519-6.08v-29.475
			c0-2.263,0.916-4.479,2.519-6.079c1.599-1.601,3.812-2.517,6.078-2.517l38.89-0.002V122.429H973.515V225.18h37.254
			c2.263,0,4.479,0.916,6.079,2.518c1.602,1.602,2.517,3.815,2.517,6.079v29.474c0,2.265-0.918,4.479-2.519,6.08
			c-1.601,1.6-3.814,2.518-6.077,2.518H919.48c-2.563-0.012-5.453-0.016-8.753-0.749c-3.286-0.713-6.873-2.357-9.916-4.982
			c-0.531-0.463-0.694-0.646-0.976-0.924c-0.256-0.264-0.525-0.547-0.836-0.879c-0.616-0.659-1.387-1.497-2.312-2.519
			c-1.848-2.039-4.31-4.786-7.183-8.019c-5.747-6.459-13.142-14.837-20.451-23.146c-14.624-16.617-28.907-32.945-28.909-32.949
			c-2.221-2.537-2.75-6.144-1.357-9.212c1.391-3.07,4.457-5.044,7.827-5.044h56.493v-60.177h-72.049v139.186
			c0,2.265-0.918,4.476-2.519,6.077c-1.599,1.601-3.814,2.519-6.077,2.519h-52.399c-2.265,0-4.478-0.918-6.079-2.519
			c-1.602-1.602-2.519-3.812-2.519-6.077V72.453c0-2.264,0.918-4.478,2.519-6.079c1.602-1.6,3.814-2.518,6.079-2.518h70v-3.684
			H680.065v3.684h68.774c2.264,0,4.478,0.918,6.078,2.518c1.601,1.602,2.519,3.815,2.519,6.079v189.947
			c0,2.265-0.918,4.477-2.519,6.078c-1.6,1.603-3.814,2.519-6.078,2.519h-52.812c-2.264,0-4.476-0.916-6.077-2.518
			c-1.601-1.601-2.519-3.814-2.519-6.079v-11.055h-62.224c-2.265,0-4.479-0.915-6.077-2.517c-1.602-1.598-2.519-3.812-2.519-6.077
			v-46.668c0-2.267,0.917-4.479,2.517-6.079c1.601-1.602,3.814-2.517,6.079-2.517l62.224-0.002v-2.045h-62.634
			c-2.265,0-4.479-0.918-6.079-2.517c-1.601-1.602-2.518-3.816-2.518-6.08v-43.803c0-2.263,0.917-4.478,2.518-6.079
			c1.601-1.602,3.815-2.519,6.079-2.519h63.043v-2.457h-74.915v140.414c0,2.264-0.918,4.476-2.519,6.077
			c-1.602,1.604-3.814,2.519-6.077,2.519h-54.856c-0.914-0.003-1.901-0.021-3.086-0.202c-1.174-0.171-2.503-0.562-3.579-1.05
			c-2.19-1.021-3.271-1.893-5.063-3.057c-0.936-0.642-1.285-1.031-1.624-1.365c-0.319-0.329-0.545-0.596-0.761-0.854
			c-0.419-0.515-0.778-1.001-1.174-1.554c-0.779-1.094-1.667-2.426-2.714-4.047c-2.086-3.233-4.78-7.587-7.903-12.729
			c-6.241-10.277-14.172-23.68-21.987-37.006c-15.629-26.646-30.781-52.96-30.789-52.969c-1.534-2.664-1.529-5.936,0.008-8.595
			c1.537-2.658,4.372-4.293,7.441-4.293l66.727-0.001V61.398h-81.53l-1.178,201.049c-0.028,4.695-3.85,8.518-8.545,8.547
			c-0.025,0-67.493,0.41-70.462,0.41c-5.143,0.011-9.295-1.697-12.006-3.424c-2.597-1.648-4.036-3.279-4.543-3.888h0l-62.941-76.042
			v0.001c-3.027-3.657-2.517-9.078,1.142-12.104c3.658-3.027,9.077-2.517,12.104,1.142L379.842,253
			c0.082,0.074,0.288,0.256,0.58,0.438c0.615,0.369,1.424,0.763,2.833,0.772c1.336,0,19.005-0.104,36.228-0.204
			c9.617-0.058,19.111-0.115,25.636-0.154l1.179-201.099c0.026-4.722,3.874-8.546,8.596-8.546h98.658
			c2.264,0,4.477,0.916,6.076,2.517c1.602,1.602,2.52,3.816,2.52,6.079v99.068c0,2.263-0.918,4.479-2.52,6.079
			c-1.599,1.599-3.814,2.517-6.076,2.517h-60.43c2.546,4.399,5.612,9.688,8.986,15.489c9.407,16.179,21.202,36.348,30.711,52.241
			c6.322,10.57,11.699,19.338,14.461,23.443c0.38,0.57,0.723,1.059,0.968,1.398c0.504,0.334,0.897,0.592,1.167,0.766
			c0.014,0.001,0.028,0.001,0.042,0.001c2.128-0.002,31.36-0.003,46.258-0.002V113.39c0-2.264,0.918-4.478,2.519-6.078
			c1.602-1.601,3.814-2.519,6.079-2.519h92.108c2.264,0,4.476,0.918,6.077,2.519c1.601,1.6,2.519,3.813,2.519,6.078v19.65
			c0,2.264-0.918,4.479-2.519,6.078c-1.602,1.601-3.813,2.519-6.077,2.519h-63.045v26.609h62.634c2.265,0,4.478,0.918,6.079,2.519
			c1.602,1.601,2.52,3.813,2.52,6.079v19.241c0,2.264-0.918,4.475-2.52,6.077c-1.602,1.604-3.815,2.519-6.079,2.519l-62.224-0.002
			v29.478h62.224c2.265,0,4.478,0.917,6.079,2.519c1.602,1.602,2.52,3.812,2.52,6.079v11.051h35.614V81.049h-68.772
			c-2.264,0-4.479-0.916-6.079-2.517c-1.602-1.602-2.52-3.816-2.52-6.079v-20.89c0-2.265,0.918-4.479,2.52-6.079
			c1.602-1.602,3.816-2.519,6.079-2.519h177.257c2.265,0,4.478,0.917,6.079,2.519c1.603,1.601,2.517,3.814,2.517,6.079V72.44
			c0,2.264-0.914,4.479-2.517,6.079c-1.601,1.601-3.814,2.518-6.079,2.518h-70.002v172.754h35.207V114.605
			c0-2.264,0.918-4.478,2.519-6.079c1.602-1.601,3.816-2.518,6.079-2.518h89.243c2.264,0,4.477,0.917,6.078,2.518
			c1.601,1.602,2.518,3.816,2.518,6.079v77.371c0,2.264-0.917,4.477-2.519,6.078c-1.599,1.601-3.812,2.518-6.076,2.518h-46.129
			c3.889,4.435,8.381,9.553,13.017,14.827c13.327,15.159,27.956,31.722,32.561,36.691c0.412,0.449,0.763,0.816,0.934,0.992
			c0.961,0.762,1.468,0.953,2.434,1.201c0.998,0.238,2.609,0.336,4.96,0.325c3.956-0.001,60.724-0.001,82.692,0v-12.28h-37.255
			c-2.262,0-4.477-0.918-6.075-2.519c-1.603-1.602-2.521-3.815-2.521-6.079V113.785c0-2.266,0.918-4.479,2.521-6.079
			c1.599-1.602,3.813-2.519,6.075-2.519h118.718c2.265,0,4.479,0.918,6.078,2.519c1.601,1.602,2.519,3.813,2.519,6.079V233.73
			c0,2.264-0.918,4.478-2.519,6.079c-1.601,1.601-3.813,2.519-6.078,2.519h-38.892v12.279h83.103V52.788
			c0-2.264,0.916-4.478,2.517-6.079c1.601-1.602,3.815-2.517,6.079-2.517h100.296c2.263,0,4.478,0.917,6.078,2.517
			c1.603,1.601,2.518,3.816,2.518,6.079v98.658c0,2.264-0.915,4.479-2.518,6.078c-1.601,1.6-3.815,2.518-6.078,2.518h-67.139v93.746
			h111.759V98.637c0-2.264,0.918-4.478,2.519-6.077c1.601-1.602,3.813-2.52,6.077-2.52h20.878c2.265,0,4.478,0.918,6.079,2.52
			c1.602,1.601,2.517,3.813,2.517,6.077v155.151h35.616V115.011c0-2.264,0.918-4.478,2.519-6.079s3.813-2.517,6.079-2.517h90.879
			c2.265,0,4.479,0.917,6.08,2.517c1.603,1.602,2.517,3.816,2.517,6.079v18.832c0,2.264-0.916,4.479-2.517,6.079
			c-1.601,1.599-3.815,2.517-6.08,2.517h-61.405v27.02h63.045c2.265,0,4.479,0.916,6.08,2.517c1.599,1.601,2.515,3.815,2.515,6.08
			v18.83c0,2.264-0.916,4.479-2.519,6.081c-1.599,1.599-3.812,2.516-6.076,2.516h-61.408v29.475h60.587
			c2.266,0,4.479,0.918,6.08,2.519c1.602,1.602,2.518,3.814,2.518,6.08v10.233c17.979,0,58.143,0,60.996,0
			c2.805,0.001,5.451,0.287,7.992,1.037c2.532,0.737,4.885,1.991,6.778,3.467c3.819,3.034,5.854,6.22,8.434,9.514
			c0.866,1.138,3.553,4.515,7.184,9.041c3.643,4.546,8.289,10.32,13.282,16.511c9.984,12.382,21.348,26.431,28.839,35.688
			c4.995,6.17,8.26,10.201,8.27,10.212c2.986,3.69,2.419,9.103-1.27,12.092c-1.593,1.29-3.505,1.917-5.406,1.917
			c-2.619,0-5.076-1.081-6.797-3.186L1592.348,350.128z"/>
		<path id="path240" d="M1599.063,357.815c-3.798,0.007-7.604-1.665-10.185-4.854v-0.001c-0.158-0.195-29.518-36.438-46.487-57.546
			c-5.701-7.096-9.898-12.341-11.471-14.393c-1.974-2.62-3.495-4.581-4.039-5.122c-0.11-0.104-0.202-0.19-0.274-0.258
			c-0.065-0.013-0.154-0.025-0.264-0.04c-0.29-0.036-0.736-0.071-1.381-0.069h-69.594c-3.479-0.007-6.797-1.379-9.263-3.837
			c-2.456-2.466-3.828-5.781-3.838-9.263v-5.73h-56.082c-3.482-0.01-6.796-1.383-9.263-3.836c-0.052-0.052-0.103-0.105-0.153-0.158
			v9.725c-0.009,3.479-1.381,6.796-3.837,9.263c-2.466,2.453-5.781,3.831-9.262,3.838h-52.811c-3.478-0.007-6.797-1.378-9.264-3.838
			c-0.425-0.427-0.817-0.879-1.175-1.354c-0.358,0.475-0.752,0.927-1.178,1.354c-2.466,2.453-5.78,3.831-9.261,3.838h-128.951
			c-3.479-0.007-6.797-1.378-9.263-3.836c-1.247-1.253-2.216-2.726-2.869-4.327c-0.635,1.919-1.711,3.681-3.167,5.146
			c-2.467,2.453-5.781,3.829-9.263,3.836h-100.296c-3.479-0.007-6.797-1.38-9.262-3.836c-1.679-1.688-2.852-3.769-3.43-6.028
			c-0.577,2.261-1.751,4.343-3.43,6.032c-2.463,2.447-5.778,3.825-9.259,3.832h-91.314c-2.55-0.016-5.865-0.001-9.687-0.853
			c-4.016-0.875-8.229-2.813-11.918-5.986c-0.622-0.535-1.012-0.945-1.188-1.121l-0.032-0.031l-0.031-0.032
			c-0.276-0.283-0.564-0.586-0.894-0.939c-0.636-0.68-1.423-1.533-2.361-2.568c-1.863-2.056-4.332-4.81-7.21-8.049
			c-5.757-6.469-13.154-14.854-20.468-23.167c-14.629-16.624-28.912-32.952-28.917-32.956c-0.441-0.506-0.839-1.04-1.193-1.596
			v63.38c-0.007,3.482-1.383,6.796-3.836,9.262c-2.465,2.456-5.782,3.832-9.261,3.839h-52.399c-3.482-0.007-6.798-1.385-9.264-3.839
			c-0.508-0.51-0.968-1.056-1.381-1.631c-0.411,0.574-0.871,1.119-1.377,1.627c-2.469,2.464-5.789,3.836-9.266,3.842h-53.004
			c-3.478-0.007-6.795-1.38-9.262-3.836c-2.455-2.467-3.831-5.782-3.838-9.264v-6.551h-57.72c-2.823-0.007-5.539-0.909-7.778-2.562
			v9.112c-0.007,3.482-1.384,6.796-3.837,9.26c-2.467,2.46-5.785,3.834-9.262,3.84h-54.875c-0.959-0.004-2.236-0.024-3.717-0.25
			c-1.655-0.247-3.267-0.724-4.831-1.423c-2.605-1.214-4.052-2.354-5.614-3.362l-0.049-0.03l-0.047-0.034
			c-1.173-0.783-2.029-1.657-2.232-1.865l-0.041-0.041l-0.04-0.041c-0.427-0.44-0.755-0.83-1.008-1.136
			c-0.507-0.622-0.933-1.2-1.356-1.791c-0.842-1.184-1.762-2.564-2.83-4.218c-2.128-3.297-4.835-7.671-7.969-12.833
			c-6.263-10.314-14.202-23.729-22.024-37.066c-13.991-23.855-27.606-47.453-30.312-52.146l-0.604,103.21
			c-0.055,7.17-5.839,12.961-13.034,13.023h-0.038c-0.032,0-0.081,0-0.145,0.002c-0.129,0-0.319,0.003-0.567,0.003
			c-0.496,0.003-1.225,0.007-2.15,0.012c-1.854,0.013-4.503,0.029-7.69,0.048c-6.374,0.038-14.902,0.09-23.523,0.142
			c-17.253,0.102-34.829,0.205-36.363,0.205h-0.051c-6.135-0.009-11.069-2.028-14.366-4.124c-0.752-0.477-1.43-0.957-2.033-1.422
			l-0.415,0.414l-58.124-70.221l-7.972-9.628c-2.014-2.433-3.014-5.418-3.009-8.351c-0.003-2.409,0.668-4.825,1.976-6.927v-0.098
			l0.035,0.043c0.724-1.149,1.639-2.205,2.739-3.113c2.43-2.015,5.415-3.014,8.349-3.009c3.75-0.006,7.513,1.625,10.097,4.749
			l62.462,75.461c0.039,0.004,0.122,0.007,0.314,0.028c1.287,0,18.99-0.104,36.201-0.205c7.608-0.046,15.14-0.091,21.185-0.128
			l1.154-196.652c0.049-7.206,5.895-13.017,13.099-13.023h98.658c3.479,0.009,6.797,1.38,9.26,3.836
			c2.457,2.467,3.832,5.784,3.839,9.265v99.067c-0.007,3.48-1.382,6.797-3.839,9.264c-2.465,2.455-5.779,3.827-9.26,3.837h-52.615
			c1.581,2.726,3.28,5.652,5.065,8.723c9.402,16.168,21.19,36.33,30.683,52.193c6.297,10.53,11.688,19.315,14.346,23.259
			c0.034,0.051,0.069,0.104,0.104,0.154c4.765-0.002,18.158-0.003,30.316-0.003c3.426,0,6.755,0,9.764,0.001V113.461
			c0.007-3.481,1.382-6.797,3.838-9.262c2.464-2.456,5.781-3.831,9.264-3.838h92.108c3.481,0.007,6.797,1.384,9.26,3.837
			c2.457,2.465,3.832,5.782,3.838,9.262v19.65c-0.007,3.481-1.382,6.797-3.838,9.261c-2.463,2.455-5.779,3.832-9.26,3.838h-58.541
			v17.602h58.129c3.481,0.007,6.797,1.382,9.262,3.838c2.456,2.464,3.831,5.78,3.838,9.263l0.001,19.242
			c-0.009,3.478-1.386,6.795-3.836,9.258c-2.47,2.461-5.79,3.832-9.267,3.838h-57.721v20.472h57.72
			c3.481,0.008,6.797,1.381,9.265,3.838c2.452,2.464,3.831,5.78,3.838,9.263v6.55h26.606V85.626h-64.268
			c-3.479-0.009-6.795-1.38-9.265-3.836c-2.454-2.467-3.831-5.782-3.838-9.263V51.645c0.007-3.483,1.384-6.799,3.838-9.262
			c2.467-2.457,5.782-3.831,9.265-3.838h177.256c3.483,0.007,6.798,1.382,9.264,3.836c2.456,2.468,3.828,5.786,3.836,9.265v20.877
			c-0.008,3.478-1.378,6.795-3.836,9.263c-2.468,2.457-5.783,3.829-9.264,3.838h-65.5v163.748h26.2V114.697
			c0.009-3.481,1.383-6.797,3.839-9.265c2.467-2.456,5.783-3.829,9.265-3.837l89.243-0.001c3.479,0.009,6.794,1.382,9.262,3.838
			c2.456,2.469,3.829,5.785,3.836,9.265v77.368c-0.007,3.482-1.383,6.798-3.836,9.262c-2.467,2.456-5.782,3.83-9.262,3.838H875.35
			c2.087,2.378,4.255,4.847,6.457,7.35c13.309,15.138,27.979,31.746,32.492,36.617c0.244,0.264,0.467,0.5,0.633,0.675
			c0.056,0.041,0.094,0.066,0.117,0.08l0.008,0.008c0-0.002,0,0,0.043,0.013c0.054,0.019,0.179,0.055,0.377,0.105
			c0.366,0.076,1.665,0.194,3.531,0.188c0.051,0,0.194-0.005,0.408-0.002c2.757-0.002,22.931-0.003,43.609-0.003
			c12.58,0,25.347,0,34.483,0v-3.273h-32.75c-3.482-0.007-6.796-1.382-9.262-3.837c-2.455-2.466-3.831-5.781-3.838-9.262V113.861
			c0.009-3.482,1.383-6.8,3.836-9.263c2.468-2.459,5.783-3.832,9.264-3.838h118.717c3.482,0.007,6.799,1.379,9.263,3.836
			c2.456,2.466,3.831,5.783,3.839,9.265v119.945c-0.009,3.481-1.383,6.798-3.839,9.265c-2.466,2.453-5.78,3.827-9.263,3.834h-34.389
			v3.275h74.098V52.865c0.009-3.48,1.382-6.796,3.838-9.265c2.469-2.457,5.784-3.827,9.264-3.834l100.295-0.002
			c3.478,0.009,6.795,1.38,9.261,3.836c2.462,2.469,3.832,5.785,3.836,9.265v98.658c-0.007,3.476-1.378,6.795-3.836,9.26
			c-2.467,2.455-5.782,3.829-9.262,3.837h-62.637v84.74h102.752V98.711c0.008-3.481,1.381-6.797,3.836-9.263
			c2.466-2.455,5.783-3.831,9.266-3.838h20.875c3.482,0.007,6.799,1.383,9.263,3.838c2.458,2.468,3.83,5.784,3.838,9.263v150.648
			h26.608V115.086c0.009-3.481,1.383-6.795,3.838-9.263c2.467-2.457,5.783-3.828,9.263-3.836h90.88
			c3.479,0.009,6.795,1.379,9.262,3.836c2.459,2.468,3.828,5.786,3.837,9.263v18.832c-0.011,3.478-1.379,6.795-3.838,9.265
			c-2.468,2.452-5.781,3.826-9.263,3.834h-56.903v18.013h58.541c3.479,0.007,6.797,1.378,9.267,3.838
			c2.453,2.467,3.823,5.782,3.833,9.261v18.831c-0.008,3.479-1.381,6.795-3.839,9.265c-2.464,2.452-5.779,3.826-9.261,3.834h-56.905
			v20.469h56.085c3.48,0.008,6.798,1.382,9.266,3.837c2.454,2.467,3.826,5.783,3.836,9.266v5.728h56.496
			c3.104,0.003,6.199,0.317,9.247,1.216c3.127,0.917,5.94,2.416,8.322,4.266c4.437,3.531,6.774,7.222,9.212,10.313
			c0.789,1.034,3.501,4.443,7.115,8.952c3.638,4.54,8.284,10.312,13.273,16.501c9.983,12.377,21.345,26.424,28.835,35.68
			c4.958,6.125,8.2,10.126,8.273,10.217c0,0.006,0,0,0-0.004c0-0.003-0.009-0.007,0-0.002c1.956,2.414,2.921,5.354,2.919,8.239
			c0.01,3.8-1.672,7.6-4.854,10.186c-2.411,1.952-5.345,2.92-8.226,2.919h-0.244L1599.063,357.815z M1488.778,266.526h36.179
			c1.947,0.002,3.314,0.196,4.411,0.525l0.106,0.031l0.092,0.031c0.321,0.114,1.051,0.35,1.825,0.853
			c0.745,0.491,1.182,0.923,1.736,1.451l0.055,0.053c1.433,1.455,2.816,3.37,4.895,6.09c1.409,1.84,5.652,7.146,11.328,14.211
			c16.994,21.137,46.467,57.519,46.467,57.519l-3.499,2.837l3.499-2.837c0.815,1.007,1.975,1.514,3.185,1.519
			c0.917-0.004,1.805-0.29,2.568-0.908c1.01-0.822,1.516-1.984,1.521-3.189c-0.008-0.918-0.291-1.801-0.954-2.624
			c-0.023-0.029-0.062-0.075-0.109-0.137c-0.101-0.124-0.248-0.306-0.442-0.543c-0.385-0.477-0.949-1.174-1.67-2.063
			c-1.444-1.781-3.509-4.331-6.006-7.419c-7.491-9.257-18.855-23.307-28.843-35.691c-4.996-6.191-9.644-11.972-13.291-16.521
			c-3.645-4.548-6.305-7.888-7.216-9.083c-2.755-3.547-4.486-6.229-7.656-8.74c-1.439-1.128-3.33-2.134-5.284-2.698
			c-2.021-0.596-4.214-0.853-6.716-0.854c-2.854,0-43.019,0-60.996,0.001h-4.505v-14.736c0.008-1.052-0.452-2.161-1.198-2.895
			c-0.736-0.748-1.849-1.209-2.896-1.2h-65.09v-38.481h65.912c1.044,0.008,2.156-0.452,2.892-1.197
			c0.746-0.736,1.208-1.848,1.201-2.896v-18.831c0.009-1.047-0.455-2.163-1.197-2.895c-0.736-0.745-1.851-1.206-2.896-1.197h-67.55
			v-36.027h65.912c1.042,0.009,2.159-0.452,2.894-1.197c0.744-0.733,1.204-1.844,1.197-2.894v-18.832
			c0.007-1.047-0.453-2.161-1.199-2.896c-0.732-0.743-1.847-1.206-2.892-1.196h-90.881c-1.052-0.007-2.16,0.45-2.896,1.196
			c-0.745,0.736-1.207,1.85-1.2,2.896V258.34h-44.622V98.686c0.009-1.05-0.453-2.16-1.199-2.896
			c-0.734-0.746-1.85-1.208-2.894-1.198h-20.875c-1.049-0.009-2.161,0.451-2.898,1.2c-0.743,0.732-1.206,1.846-1.197,2.894V258.34
			h-120.765V155.58h71.642c1.043,0.01,2.159-0.453,2.898-1.202c0.739-0.73,1.2-1.842,1.195-2.889V52.831
			c0.009-1.05-0.454-2.162-1.197-2.897c-0.735-0.744-1.848-1.204-2.895-1.196H1136.47c-1.049-0.007-2.164,0.453-2.898,1.196
			c-0.743,0.736-1.205,1.849-1.197,2.897v206.322h-92.108v-21.286h43.398c1.044,0.007,2.159-0.454,2.893-1.198
			c0.749-0.736,1.207-1.851,1.199-2.896V113.828c0.008-1.05-0.45-2.157-1.2-2.897c-0.732-0.746-1.848-1.206-2.892-1.198H964.948
			c-1.048-0.007-2.161,0.453-2.896,1.2c-0.747,0.738-1.207,1.845-1.197,2.896v119.945c-0.01,1.047,0.452,2.16,1.199,2.896
			c0.731,0.743,1.848,1.204,2.895,1.197h41.755v21.288h-4.503c-9.103-0.001-24.172-0.001-38.986-0.001
			c-20.951,0-41.392,0-43.704,0.001h-0.054l-0.052-0.001h-0.208c-2.338-0.012-4.009-0.066-5.695-0.447l-0.043-0.012l-0.03-0.009
			c-1.085-0.208-2.936-1.001-4.114-2.034l-0.227-0.181l-0.208-0.214c-0.2-0.207-0.568-0.593-1.001-1.063
			c-4.707-5.079-19.296-21.602-32.643-36.781c-4.638-5.275-9.131-10.394-13.021-14.83l-6.552-7.472h56.068
			c1.045,0.008,2.159-0.455,2.891-1.199c0.748-0.736,1.208-1.848,1.201-2.894v-77.369c0.008-1.05-0.453-2.163-1.199-2.897
			c-0.732-0.746-1.847-1.206-2.893-1.198h-89.177c-1.048-0.007-2.162,0.452-2.896,1.2c-0.748,0.733-1.208,1.848-1.2,2.895v143.689
			h-44.212V76.553h74.507c1.044,0.01,2.159-0.452,2.895-1.2c0.743-0.732,1.208-1.845,1.198-2.894V51.578
			c0.01-1.051-0.453-2.16-1.2-2.896c-0.734-0.748-1.848-1.208-2.893-1.199H671.486c-1.045-0.008-2.161,0.453-2.897,1.199
			c-0.747,0.738-1.205,1.846-1.198,2.896v20.877c-0.009,1.046,0.454,2.16,1.198,2.893c0.734,0.747,1.849,1.208,2.897,1.198h73.273
			v181.76H700.14v-15.554c0.008-1.05-0.45-2.157-1.199-2.895c-0.736-0.746-1.849-1.208-2.896-1.2h-66.727v-38.483l66.727,0.002
			c1.05,0.007,2.16-0.452,2.896-1.197c0.749-0.741,1.207-1.851,1.199-2.894v-19.242c0.008-1.047-0.453-2.159-1.199-2.896
			c-0.736-0.744-1.849-1.207-2.896-1.2h-67.137v-35.613h67.548c1.046,0.007,2.158-0.452,2.896-1.202
			c0.744-0.732,1.206-1.846,1.197-2.892v-19.65c0.008-1.045-0.454-2.16-1.199-2.894c-0.735-0.748-1.848-1.208-2.894-1.2H604.34
			c-1.048-0.007-2.157,0.453-2.897,1.202c-0.746,0.733-1.205,1.847-1.198,2.892v144.917l-4.506-0.004h-14.263
			c-14.349,0-30.436,0-31.991,0.002c-0.013,0-0.113,0.002-0.299-0.008l-1.177-0.067l-0.991-0.633
			c-0.305-0.195-0.716-0.463-1.238-0.812l-0.677-0.452l-0.477-0.661c-0.281-0.385-0.653-0.915-1.054-1.52
			c-2.883-4.286-8.245-13.036-14.59-23.644c-9.527-15.926-21.327-36.104-30.738-52.291c-3.376-5.804-6.444-11.097-8.993-15.496
			l-3.911-6.76h68.239c1.046,0.009,2.161-0.455,2.894-1.198c0.748-0.736,1.208-1.85,1.199-2.896V52.819
			c0.007-1.045-0.453-2.162-1.202-2.898c-0.733-0.743-1.842-1.204-2.892-1.196h-98.659c-2.238-0.007-4.088,1.831-4.093,4.07
			l-1.204,205.551l-4.451,0.026c-6.525,0.04-16.019,0.096-25.637,0.154c-17.233,0.101-34.867,0.204-36.289,0.204
			c-2.214,0.035-4.217-0.824-5.119-1.417l-0.03-0.019l-0.042-0.023c-0.61-0.386-1-0.722-1.273-0.976l-0.205-0.19l-63.012-76.126
			c-0.82-0.988-1.964-1.478-3.158-1.484c-0.93,0.003-1.829,0.299-2.61,0.942c-0.984,0.815-1.474,1.957-1.482,3.156
			c0.003,0.91,0.29,1.792,0.903,2.56l62.534,75.548l0.44,0.529c0.327,0.388,1.39,1.626,3.5,2.967
			c2.098,1.339,5.436,2.726,9.537,2.72h0.051c2.93,0,70.392-0.408,70.435-0.408c2.217-0.003,4.069-1.854,4.069-4.072l1.204-205.527
			h90.503v90.88l-71.229,0.002c-1.467,0-2.811,0.775-3.545,2.047c-0.368,0.633-0.55,1.334-0.55,2.045
			c0,0.684,0.169,1.362,0.513,1.984c0.012,0.018,0.015,0.024,0.019,0.031c0.006,0.009,0.007,0.013,0.009,0.019
			c0.006,0.007,0.009,0.015,0.014,0.022c0.01,0.016,0.02,0.035,0.035,0.06c0.029,0.052,0.074,0.129,0.131,0.229
			c0.117,0.199,0.288,0.495,0.509,0.881c0.444,0.773,1.099,1.906,1.931,3.346c1.666,2.884,4.048,7.004,6.917,11.957
			c5.74,9.906,13.431,23.14,21.239,36.452c7.81,13.315,15.733,26.706,21.953,36.946c3.111,5.125,5.79,9.453,7.837,12.624
			c1.028,1.592,1.883,2.876,2.594,3.868c0.374,0.525,0.666,0.92,0.972,1.292c0.194,0.23,0.313,0.374,0.504,0.574
			c0.421,0.409,0.296,0.332,0.968,0.815v0.001c1.949,1.277,2.67,1.873,4.379,2.671c0.626,0.293,1.671,0.602,2.393,0.697
			c0.862,0.133,1.56,0.149,2.408,0.153h54.856c1.05,0.007,2.156-0.453,2.892-1.2c0.749-0.738,1.209-1.848,1.202-2.893V117.48h83.928
			v11.463h-67.543c-1.049-0.007-2.16,0.455-2.896,1.199c-0.745,0.734-1.206,1.845-1.198,2.896v43.802
			c-0.008,1.048,0.453,2.163,1.196,2.894c0.736,0.745,1.851,1.208,2.898,1.2h67.134v11.052l-66.725,0.003
			c-1.05-0.008-2.162,0.449-2.894,1.195c-0.748,0.734-1.208,1.845-1.199,2.898v46.667c-0.008,1.047,0.453,2.161,1.202,2.896
			c0.73,0.741,1.842,1.202,2.892,1.194h66.727v15.56c-0.009,1.045,0.453,2.159,1.2,2.896c0.734,0.745,1.842,1.206,2.891,1.198
			h52.812c1.048,0.008,2.158-0.453,2.892-1.2c0.747-0.738,1.208-1.849,1.199-2.894V72.451c0.008-1.045-0.453-2.159-1.199-2.896
			c-0.733-0.743-1.846-1.206-2.892-1.197h-73.279V55.667h169.077v12.691h-74.502c-1.048-0.007-2.16,0.453-2.896,1.197
			c-0.746,0.737-1.207,1.848-1.197,2.896v189.947c-0.007,1.045,0.45,2.155,1.197,2.894c0.738,0.747,1.848,1.208,2.896,1.2h52.4
			c1.044,0.008,2.157-0.455,2.892-1.2c0.748-0.738,1.208-1.849,1.199-2.894V118.71h81.056v69.184l-60.996-0.002
			c-1.603,0-3.069,0.945-3.732,2.411c-0.243,0.533-0.363,1.102-0.363,1.68c0.003,0.965,0.339,1.911,1.018,2.705l0.001-0.001
			l0.006,0.008c0.005,0.006,0.017,0.019,0.029,0.035c0.029,0.032,0.07,0.077,0.121,0.139c0.109,0.124,0.269,0.309,0.48,0.547
			c0.419,0.478,1.035,1.182,1.818,2.079c1.567,1.79,3.809,4.349,6.507,7.428c5.398,6.157,12.623,14.393,19.931,22.697
			c7.308,8.307,14.699,16.682,20.438,23.132c2.867,3.223,5.322,5.962,7.152,7.985c0.914,1.006,1.671,1.831,2.258,2.458
			c0.296,0.314,0.545,0.577,0.777,0.815c0.33,0.327,0.29,0.304,0.698,0.663c2.41,2.093,5.37,3.441,7.951,3.995
			c2.758,0.612,5.219,0.634,7.777,0.642h91.29c1.044,0.01,2.157-0.452,2.894-1.197c0.746-0.736,1.206-1.853,1.199-2.896v-29.476
			c0.007-1.05-0.453-2.16-1.198-2.895c-0.734-0.746-1.849-1.206-2.895-1.199h-41.757V117.907h110.529v111.759h-43.393
			c-1.049-0.008-2.161,0.452-2.896,1.199c-0.745,0.734-1.207,1.847-1.199,2.894v29.476c-0.011,1.046,0.452,2.159,1.197,2.896
			c0.735,0.744,1.846,1.206,2.895,1.197h100.295c1.045,0.009,2.161-0.455,2.892-1.197c0.748-0.736,1.21-1.853,1.201-2.896V56.912
			h92.107v90.471h-71.636c-1.049-0.007-2.158,0.453-2.894,1.197c-0.748,0.736-1.21,1.852-1.2,2.898v110.938
			c-0.011,1.047,0.452,2.161,1.2,2.896c0.733,0.745,1.841,1.206,2.894,1.198h128.951c1.043,0.008,2.156-0.453,2.892-1.199
			c0.746-0.737,1.205-1.845,1.197-2.896V102.764h12.692v159.652c-0.008,1.047,0.454,2.163,1.2,2.896
			c0.731,0.745,1.845,1.206,2.894,1.198h52.811c1.042,0.008,2.154-0.453,2.891-1.199c0.746-0.737,1.206-1.845,1.197-2.896V119.138
			h82.693v10.644l-65.906,0.001c-1.049-0.007-2.161,0.453-2.892,1.196c-0.748,0.736-1.21,1.851-1.201,2.897v44.211
			c-0.009,1.045,0.453,2.161,1.197,2.893c0.734,0.747,1.849,1.208,2.896,1.201h67.545v10.642h-65.907
			c-1.049-0.006-2.159,0.454-2.893,1.2c-0.748,0.735-1.21,1.85-1.201,2.894v46.67c-0.009,1.043,0.453,2.16,1.198,2.893
			c0.736,0.747,1.849,1.207,2.896,1.199h65.091v14.738c-0.011,1.047,0.452,2.16,1.202,2.898c0.728,0.743,1.84,1.203,2.889,1.195
			h33.405L1488.778,266.526z M978.05,220.677h32.751c3.48,0.008,6.797,1.381,9.262,3.835c1.681,1.687,2.852,3.77,3.429,6.028
			c0.577-2.26,1.75-4.343,3.429-6.027c2.466-2.455,5.783-3.828,9.262-3.836l34.386-0.002v-93.736H978.05v93.745v-0.003V220.677z
			 M843.581,194.756c-0.008-0.011-0.015-0.016-0.016-0.018l-0.01-0.012l-0.003-0.003h-0.001c0.008,0.018,0.018,0.025,0.025,0.033
			H843.581z M835.573,184.997c2.381-3.746,6.533-6.066,11.054-6.07h51.986v-51.168h-63.041v57.234l-0.016,0.004H835.573z
			 M1149.576,145.165c0.587-1.063,1.324-2.049,2.199-2.929c2.466-2.455,5.782-3.83,9.263-3.836l62.633-0.002V65.941h-74.097v79.229
			L1149.576,145.165z M467.418,144.453c2.432-3.517,6.451-5.646,10.772-5.646l62.224-0.001V65.937h-72.535l-0.467,78.517
			L467.418,144.453z M759.43,64.857c0.034-0.049,0.07-0.098,0.105-0.146h-0.212C759.365,64.759,759.397,64.809,759.43,64.857
			L759.43,64.857z"/>
	</g>
	<g id="g242">
		<path id="path244" fill="#FEE600" d="M1293.729,75.036l-20.883-23.667c-1.168-1.322-1.82-3.129-1.808-5
			c0.013-1.87,0.688-3.667,1.871-4.971l20.885-23c2.432-2.679,6.321-2.632,8.702,0.106l20.294,23.335
			c2.368,2.722,2.368,7.104,0,9.827l-20.294,23.334c-1.159,1.333-2.728,2.079-4.377,2.086h-0.02
			c-1.706-0.007-3.294-0.74-4.411-2.053L1293.729,75.036z M1285.964,46.489l12.053,13.661l11.652-13.398l-11.713-13.469l-12,13.207
			H1285.964z"/>
		<path id="path246" d="M1298.083,80.749c-2.496,0.001-4.894-1.123-6.658-3.125l2.286-2.593l-2.286,2.592l-20.883-23.66
			c-1.765-2-2.755-4.707-2.759-7.531c0-0.009,0-0.034,0-0.071c0-0.034,0-0.079,0.006-0.135c0.046-2.812,1.066-5.492,2.849-7.458
			l20.885-23c1.819-2.007,4.203-3.021,6.558-3.016c2.42-0.004,4.868,1.067,6.703,3.177l20.295,23.335
			c1.801,2.067,2.711,4.794,2.707,7.488c0.006,2.693-0.907,5.419-2.707,7.488l-20.293,23.331c-1.759,2.029-4.166,3.174-6.682,3.183
			h0.06L1298.083,80.749z M1298.083,73.415h0.007c0.795-0.007,1.525-0.355,2.082-0.994l20.296-23.333
			c0.567-0.657,0.842-1.484,0.845-2.341c0-0.86-0.277-1.686-0.845-2.34l-20.294-23.333c-0.583-0.668-1.324-0.989-2.096-0.993
			c-0.748,0.002-1.47,0.306-2.046,0.941l-20.885,23c-0.561,0.614-0.887,1.482-0.892,2.368l-0.001,0.094
			c0.016,0.85,0.327,1.683,0.863,2.286l20.88,23.667c0.588,0.637,1.294,0.979,2.118,0.979H1298.083z M1283.671,49.081l-2.321-2.63
			l16.647-18.335l16.209,18.635l-16.178,18.604l-14.412-16.273H1283.671z M1298.023,54.944l7.127-8.194l-7.22-8.302l-7.335,8.078
			l7.472,8.418H1298.023z"/>
	</g>
	<g id="Layer_5_1_" transform="matrix(0.4161329,0,0,0.4161329,197.98398,622.57578)">
		<path id="path134_1_" fill="#991A37" d="M-138.798-585.28c-52.105,0-102.821-9.882-142.791-27.826
			c-43.625-19.588-73.443-48.033-86.228-82.256c-5.698-15.263-45.743-122.461-66.231-177.321c0.95,0.221,1.958,0.418,3.024,0.589
			c1.308,0.209,2.601,0.383,3.883,0.561c4.871,0.667,9.076,1.239,13.009,3.346c5.274,2.828,6.889,7.113,9.291,14.442l6.747,20.37
			c1.488,4.494,6.756,6.242,18.8,6.242c1.332,0,2.383-0.023,2.925-0.042c1.045-0.033,2.084-0.07,3.116-0.113
			c2.449-0.094,4.759-0.178,7.072-0.178c4.008,0,7.268,0.286,10.255,0.906c6.964,1.436,12.711,4.121,16.615,7.761
			c2.172,2.021,2.97,4.231,4.07,7.291c0.637,1.765,1.358,3.769,2.434,5.86c5.154,9.997,17.165,15.733,32.959,15.733
			c2.76,0,5.524-0.176,8.223-0.528c3.709-0.481,7.262-1.286,10.7-2.063c4.48-1.018,8.715-1.971,13.048-2.201
			c1.246-0.066,2.498-0.103,3.75-0.103c5.883,0,11.589,0.735,16.965,2.171c7.062,1.896,12.702,4.705,16.76,8.373
			c1.044,0.925,1.995,1.835,2.929,2.727c3.064,2.924,6.227,5.942,10.835,8.195c6.822,3.337,14.781,5.097,23.016,5.097
			c8.58,0,17.143-1.873,24.764-5.421l1.476-0.685c6.768-3.159,12.614-5.89,19.581-7.115c4.116-0.718,8.356-1.089,12.6-1.089
			c2.99,0,6.017,0.185,8.993,0.549c6.888,0.831,13.224,3.473,19.932,6.261c7.356,3.06,14.964,6.224,23.64,7.05
			c1.924,0.183,3.87,0.277,5.778,0.277c6.574,0,12.826-1.065,18.578-3.168c7.27-2.647,11.798-6.918,16.593-11.443l1.252-1.178
			c10.004-9.382,25.204-10.786,33.376-10.786c1.399,0,2.82,0.042,4.221,0.122c4.899,0.277,9.626,1.197,14.637,2.168
			c5.97,1.159,12.143,2.366,18.574,2.366c4.665,0,8.967-0.629,13.159-1.915c9.449-2.887,16.12-8.552,18.775-15.944l0.073-0.209
			l0.056-0.211c1.683-6.317,3.822-9.723,7.883-12.557c4.729-3.314,10.808-5.426,18.075-6.299c1.516-0.178,3.177-0.268,5.078-0.268
			c1.984,0,3.966,0.094,6.068,0.19c2.12,0.099,4.316,0.2,6.539,0.2c1.555,0,2.965-0.052,4.317-0.153l0.866-0.056
			c4.218-0.284,12.07-0.805,14.31-7.39l3.846-11.33c0.595-1.753,1.132-3.64,1.649-5.466c1.401-4.933,2.851-10.039,5.531-13.055
			c4.043-4.557,10.773-6.184,15.704-6.752l1.084-0.12c2.212-0.249,4.627-0.514,7.063-1.03L93.168-695.894
			c-13.026,34.234-43.305,62.778-87.555,82.528c-40.633,18.14-91.912,28.119-144.39,28.119"/>
		<path id="path136_1_" fill="#010101" d="M168.752-882.318c-0.035,0.028-0.066,0.066-0.1,0.099
			c-0.089,0.089-0.164,0.164-0.176,0.178c0.09-0.091,0.18-0.183,0.28-0.282 M168.766-882.332l-0.008,0.012l0.011-0.012H168.766z
			 M168.776-882.342c-0.006,0-0.009,0.005-0.014,0.009l0.009-0.009H168.776z M168.825-882.393c-0.041,0.04-0.116,0.122-0.214,0.216
			l0.045-0.042c0.06-0.061,0.121-0.122,0.17-0.171 M168.857-882.431c-0.012,0.016-0.021,0.023-0.033,0.038
			c0.007-0.009,0.019-0.019,0.025-0.023v-0.019 M168.858-882.445l-0.019,0.023c-0.026,0.021-0.049,0.047-0.072,0.07
			c0.07-0.049,0.09-0.089,0.09-0.089 M-444.372-885.58c17.657,47.266,65.463,175.242,71.731,192.03
			c28.327,75.831,130.909,113.44,233.849,113.44c103.79,0,207.93-38.201,236.77-113.97c6.722-17.662,55.294-145.25,72.859-191.378
			c-0.439,1.143-1.13,2.171-1.975,3.046c0.095-0.091,0.17-0.169,0.17-0.169s-0.073,0.077-0.272,0.279
			c-0.203,0.204-0.278,0.279-0.278,0.279s0-0.002,0.002-0.002c-1.119,1.131-1.504,1.521-1.504,1.521
			c-0.004,0,1.117-1.131,1.636-1.657c-4.444,4.358-11.065,4.839-16.894,5.508c-6.856,0.786-14.252,3.133-18.97,8.446
			c-4.632,5.214-6.015,13.829-8.208,20.29c-1.284,3.776-2.566,7.554-3.845,11.328c-1.231,3.626-7.176,3.701-10.681,3.966
			c-1.311,0.099-2.624,0.136-3.932,0.136c-4.207,0-8.398-0.387-12.607-0.387c-1.89,0-3.786,0.075-5.69,0.3
			c-7.171,0.859-14.448,3.013-20.413,7.188c-5.704,3.982-8.171,8.922-9.915,15.463c-2.415,6.728-8.881,10.76-15.432,12.759
			c-3.978,1.22-7.842,1.685-11.649,1.685c-11.01,0-21.533-3.877-32.918-4.522c-1.477-0.087-2.986-0.131-4.512-0.131
			c-13.028,0-27.333,3.208-36.903,12.177c-5.143,4.823-9.243,9.054-16.081,11.544c-5.361,1.957-11.099,2.856-16.816,2.856
			c-1.767,0-3.536-0.089-5.287-0.253c-15.479-1.474-27.929-11.415-43.441-13.301c-3.188-0.385-6.4-0.582-9.612-0.582
			c-4.522,0-9.042,0.385-13.493,1.164c-8.182,1.441-14.914,4.757-22.34,8.209c-6.904,3.215-14.768,4.942-22.591,4.942
			c-7.208,0-14.382-1.469-20.75-4.581c-5.203-2.544-8.378-6.385-12.574-10.119c-5.272-4.755-12.089-7.702-18.883-9.523
			c-5.95-1.591-12.132-2.337-18.293-2.337c-1.34,0-2.686,0.033-4.021,0.103c-8.298,0.437-15.973,3.234-24.14,4.299
			c-2.355,0.305-4.917,0.483-7.562,0.483c-10.924,0-23.282-3.06-28.373-12.94c-2.721-5.278-2.905-10.211-7.572-14.564
			c-5.212-4.853-12.197-7.608-19.09-9.03c-3.815-0.789-7.552-1.014-11.297-1.014c-3.416,0-6.842,0.183-10.354,0.296
			c-0.512,0.016-1.504,0.042-2.763,0.042c-4.705,0-13.121-0.343-13.906-2.713c-2.086-6.303-4.182-12.616-6.271-18.929
			c-2.558-7.726-4.385-14.604-12.224-18.807c-5.911-3.166-12.062-3.431-18.519-4.454c-5.29-0.84-12.149-2.91-14.21-8.411
			 M-444.437-885.613c0.005,0.012,0.007,0.019,0.012,0.033c0,0,0-0.021-0.009-0.031 M152.485-866.37l-25.55,67.113L88.287-697.755
			c-12.529,32.923-41.867,60.466-84.84,79.649c-39.984,17.854-90.518,27.678-142.291,27.678c-51.394,0-101.36-9.725-140.68-27.377
			c-42.34-19.009-71.217-46.452-83.509-79.358c-5.423-14.522-41.953-112.32-63.132-169.018c3.76,0.53,6.84,1.089,9.549,2.539
			c3.409,1.826,4.523,4.464,6.831,11.504l0.475,1.46l3.772,11.377l2.499,7.547c3.237,9.781,16.546,9.781,23.694,9.781
			c1.409,0,2.519-0.026,3.091-0.042c1.056-0.038,2.106-0.075,3.152-0.117c2.398-0.089,4.662-0.174,6.875-0.174
			c3.701,0,6.54,0.244,9.213,0.798c6.038,1.241,10.93,3.487,14.146,6.482c1.152,1.075,1.64,2.234,2.732,5.266
			c0.69,1.92,1.471,4.083,2.701,6.477c6.065,11.776,19.749,18.528,37.54,18.528c2.983,0,5.971-0.195,8.893-0.575
			c3.945-0.507,7.616-1.342,11.168-2.145c4.259-0.967,8.284-1.873,12.18-2.079c1.161-0.066,2.332-0.089,3.484-0.089
			c5.429,0,10.688,0.667,15.628,1.99c6.267,1.673,11.192,4.102,14.702,7.27c0.921,0.824,1.816,1.676,2.763,2.572
			c3.189,3.051,6.806,6.496,12.122,9.096c7.527,3.684,16.269,5.628,25.283,5.628c9.327,0,18.64-2.039,26.941-5.897l1.484-0.695
			c6.436-3.006,11.994-5.602,18.294-6.709c3.818-0.669,7.756-1.009,11.703-1.009c2.787,0,5.602,0.169,8.37,0.507
			c6.186,0.751,12.203,3.257,18.577,5.904c7.709,3.21,15.681,6.526,25.13,7.42c2.084,0.207,4.193,0.303,6.266,0.303
			c7.18,0,14.024-1.171,20.343-3.473c8.27-3.013,13.402-7.862,18.367-12.543l1.238-1.169c6.363-5.965,17.245-9.389,29.849-9.389
			c1.305,0,2.626,0.042,3.927,0.115c4.552,0.258,9.112,1.145,13.946,2.084c6.211,1.211,12.634,2.455,19.558,2.455
			c5.186,0,9.983-0.699,14.664-2.131c11.05-3.379,18.908-10.178,22.125-19.145l0.144-0.406l0.112-0.42
			c1.366-5.121,2.844-7.557,5.86-9.664c3.967-2.779,9.405-4.642,15.727-5.4c1.312-0.155,2.774-0.232,4.468-0.232
			c1.868,0,3.792,0.089,5.829,0.183c2.181,0.103,4.437,0.204,6.776,0.204c1.685,0,3.224-0.054,4.699-0.162l0.827-0.061
			c4.637-0.305,15.503-1.028,18.85-10.877l1.786-5.259l2.058-6.064c0.636-1.877,1.191-3.825,1.727-5.717
			c1.183-4.173,2.527-8.904,4.428-11.044c2.271-2.53,6.55-4.309,12.089-4.989"/>
		<path id="path138_1_" fill="#010101" d="M-162.238-1091.1c-9.962,0-18.968,3.825-28.734,4.46
			c-9.52,0.617-19.023-1.013-28.559-0.28c-12.162,0.934-22.501,7.532-34.859,7.532c-11.376,0-23.208-0.203-33.622,5.211
			c-17.006,8.84-42.183,3.269-56.24,17.806c-11.356,11.744-32.775,5.833-45.746,18.109c-3.359,3.18-3.875,8.486-8.141,9.95
			c-4.792,1.657-9.791,2.674-14.6,4.291c-9.432,3.173-19.496,8.64-23.161,18.545c-2.354,6.352,0.823,7.193-5.599,9.833
			c-4.434,1.826-8.757,3.973-12.563,6.925c-6.972,5.409-8.833,12.847-9.841,21.696c-0.078,0.662,0.094,11.999,0.106,11.987
			c-3.357,2.725-6.313,6.008-8.457,9.781c-5.076,8.948-4.088,18.476-0.324,27.776c4.086,10.084,7.542,13.895,7.953,24.277
			c-0.438,4.975,1.962,10.15,3.776,14.599c7.727,18.976,12.127,33.46,35.171,33.951c4.657,0.099,6.848,18.392,8.581,22.998
			c4.276,11.37,14.517,19.194,26.056,22.285c15.607,4.187,40.228-5.062,47.201,13.151c7.907,20.647,32.447,28.283,52.705,26.629
			c16.365-1.34,40.409-11.703,53.775,3.492c15.451,17.561,41.699,21.994,63.564,16.237c20.045-5.273,34.754-17.441,56.421-9.101
			c23.918,9.211,46.034,17.343,70.708,3.921c17.361-9.448,23.795-22.599,46.377-18.783c19.917,3.389,38.953,7.594,57.364-3.966
			c13.434-8.425,13.795-27.875,29.879-29.776c14.16-1.671,27.922,1.685,41.347-5.308c16.23-8.446,20.006-26.8,23.613-43.225
			c14.287-2.122,26.659-5.998,31.885-21.255c3.269-7.219,6.613-15,7.681-22.923c0.476-3.154,0.333-6.378-0.366-9.49
			c2.349-3.046,4.71-5.759,6.381-9.274c8.054-16.981,6.186-36.802-10.222-47.697c4.34-15.55-0.535-26.544-14.704-34.754
			c-7.161-4.148-11.1-3.47-13.246-11.289c-2.021-7.247-5.34-12.932-11.706-16.665c-8.205-4.811-17.501-5.707-26.13-9.272
			c-3.546-9.23-12.568-14.694-21.549-17.657c-7.43-2.45-15.186-2.774-22.69-4.777c-7.714-2.069-12.072-9.266-19.985-12.143
			c-8.574-3.115-17.676-3.399-26.646-4.344c-9.661-1.016-16.372-6.878-25.515-9.249c-9.656-2.538-19.14-1.883-28.927-2.475
			c-9.838-0.59-18.166-5.734-27.864-6.973c-7.696-0.983-15.402-0.33-23.112-0.022c-10.538,0.414-20.038-2.909-30.372-4.197
			c-9.741-1.212-19.262,0.61-28.933,1.559c-9.59,1-18.55-2.1-28.12-2.1"/>
		<path id="path140_1_" fill="#991A37" d="M-192.289-750.299c-12.885,0-26.496-4.264-35.356-14.538
			c-6.937-8.047-17.443-11.431-27.48-12.489c-14.401-1.521-27.387,4.71-41.594,4.71c-12.587,0-27.231-4.288-33.935-16.477
			c-2.551-4.67-2.533-10.178-6.465-13.984c-5.155-5.05-12.601-7.327-19.449-8.181c-13.502-1.673-26.768,2.607-39.279-5.325
			c-4.993-3.161-8.803-8.148-10.083-14.226c-0.857-3.175-6.136-21.424-6.871-25.298c-1.083-5.707-18.448-1.814-24.282-5.144
			c-5.297-3.025-7.952-11.07-9.649-14.829c-1.698-3.757-6.909-15.456-7.246-19.128c0.867-1.744,19.926-5.684,19.926-5.684
			s-3.331-0.936-9.156-2.943c-5.827-2.004-12.634-7.824-14.334-11.093c-1.703-3.274-9.759-17.336-7.263-24.467
			c3.688-4.614,22.306-4.13,26.413-7.568c-0.956-1.164-11.342-8.879-12.512-10.477c-4.007-5.47-3.078-17.565,1.069-22.505
			c4.365-5.2,23.397-2.583,30.111-6.532c2.597-1.53-9.323-0.8-6.984-2.781c3.016-2.55,1.819-11.06,2.274-14.706
			c1.87-14.972,27.015-10.24,36.605-14.042c2.862-1.137,5.582,1.37,7.981-0.649c1.457-1.234,1.32-5.582,2.598-7.594
			c3.345-5.281,16.202-12.162,21.766-13.86c6.222-1.897,6.202,1.971,12.403-0.027c2.971-0.958,6.172-2.107,8.683-4.095
			c2.077-1.612,3.072-4.759,5.482-6.477c5.964-4.255,12.443-7.27,19.215-8.69c6.899-1.446,14.103-1.254,21.527-1.251
			c5.021,0,7.896-5.705,12.732-7.437c6.948-3.39,11.65-4.485,18.47-5.285c6.126,0.338,14.693,2.211,20.613,0.509
			c5.288-1.515,9.702-4.671,15.207-5.748c12.214-2.382,24.331,1.298,36.581-0.823c5.359-0.929,10.245-3.308,15.668-3.992
			c6.416-0.807,13.142-0.617,19.413,1.057c12.702,3.444,24.503-1.559,37.122-1.409c9.411,0.111,17.584,4.205,26.808,5.088
			c11.282,1.069,22.281-1.99,33.519,0.65c5.13,1.21,9.347,4.278,14.374,5.637c6.28,1.684,12.717-0.568,19.152-0.723
			c5.602,0.495,9.388,2.662,16.816,5.969c6.539,2.729,10.537,5.319,16.426,7.331c6.801,2.321,8.115-1.057,15.54-0.246
			c7.883,0.86,19.855,6.192,25.278,10.903c2.187,1.897,3,4.77,5.427,6.24c2.516,1.535,5.336,2.585,8.122,3.445
			c4.853,1.489,1.125-2.983,6.104-2.12c7.628,1.544,20.277,8.662,24.696,12.717c2.341,2.144,4.151,5.004,4.506,8.305
			c0.311,3,3.024,3.816,5.78,3.276c1.049-0.205,2.14-0.544,3.755-0.15c5.949,1.927,20.525-1.136,26.725,4.265
			c4.392,3.83,7.936,3.925,8.824,10.428c0.401,2.942,1.474,16.975,3.742,16.71c5.852,2.628,16.891,0.327,22.193,6.687
			c2.323,2.789,4.19,5.246,2.932,10.009c-1.261,4.762-5.559,19.452-4.405,20.339c5.539,4.231,14.306,2.875,16.757,8.997
			c2.626,6.576-0.982,21.346-4.858,25.692c-1.156,1.291-7.268,9.176-7.456,10.692c2.875,3.947,2.74,4.879,2.608,7.683
			c-0.135,2.811-2.175,10.499-7.061,21.398c-4.549,14.747-21.909,11.708-32.966,15.55c-1.069,5.881-6.274,30.94-10.833,36.825
			c-9.048,11.663-24.17,10.772-36.975,10.354c-6.495-0.209-13.17,0.739-19.194,3.361c-2.783,1.211-5.467,2.811-7.682,4.961
			c-2.949,2.858-3.442,5.914-4.601,9.72c-4.106,13.438-17.961,19.544-30.333,20.703c-10.355,0.962-19.423-2.164-29.462-3.9
			c-9.757-1.69-20.108-1.094-29.509,2.22c-4.438,1.568-8.81,3.806-12.298,7.125c-3.275,3.126-5.869,6.604-9.642,9.181
			c-8.247,5.642-18.268,8.049-28.034,8.049c-9.987,0-20.048-2.525-28.776-7.66c-8.593-5.027-18.766-6.944-28.515-6.944
			c-9.747,0.012-19.944,1.908-28.517,6.977c-8.74,5.121-18.84,7.669-28.86,7.669"/>
		<path id="path142_1_" fill="#CB2027" d="M-193.578-782.539c-13.185,0-27.115-3.877-36.178-13.198
			c-7.102-7.303-17.852-10.377-28.119-11.337c-14.74-1.378-28.026,4.278-42.568,4.278c-12.873,0-27.858-3.896-34.72-14.963
			c-2.612-4.238-2.591-9.242-6.618-12.696c-5.272-4.586-12.893-6.651-19.898-7.418c-13.815-1.528-27.389,2.363-40.186-4.846
			c-5.115-2.868-9.155-7.369-10.322-12.912c-0.554-2.68-0.42-5.428,0.278-8.068c0.7-2.607,2.193-4.97,0.974-7.665
			c-2.212-4.895-9.21-6.935-14.307-7.735c-6.532-1.033-12.851-1.138-18.82-4.166c-5.42-2.746-9.606-7.54-9.876-13.459
			c-0.303-6.665,3.966-11.084,8.197-15.864c4.289-4.837,1.448-8.183-4.365-9.601c-6.165-1.502-12.453-4.832-14.381-10.884
			c-2.021-6.31,1.808-12.363,6.733-16.448c4.248-3.518,10.821-5.555,13.597-10.43c0.947-1.666-4.676-4.147-5.874-5.596
			c-4.101-4.968-2.841-11.363,1.401-15.843c4.465-4.723,10.646-7.061,16.698-9.46c2.817-1.11,5.59-2.468,7.984-4.268
			c3.082-2.317,0.835-2.701,0.216-5.989c-2.718-14.435,20.035-17.493,29.847-20.946c2.929-1.028,5.929-2.275,8.385-4.112
			c1.495-1.118,1.359-5.067,2.662-6.894c3.423-4.797,9.902-7.216,15.596-8.76c6.362-1.718,13.022-2.029,19.362-3.845
			c3.045-0.872,6.321-1.914,8.888-3.717c2.125-1.467,3.141-4.323,5.608-5.881c12.319-7.795,28.236-4.429,41.69-9.023
			c4.798-1.638,8.075-5.178,13.025-6.752c6.719-2.13,14.104-2.804,21.163-2.471c6.267,0.31,12.778-0.318,18.836-1.866
			c5.408-1.374,9.926-4.239,15.558-5.218c12.499-2.164,24.897,1.18,37.431-0.745c5.481-0.844,10.478-3.004,16.034-3.627
			c6.563-0.729,13.447-0.56,19.858,0.962c13,3.127,25.075-1.413,37.983-1.279c9.632,0.1,17.994,3.816,27.432,4.615
			c11.546,0.973,22.802-1.801,34.3,0.596c5.246,1.094,9.563,3.88,14.713,5.112c6.42,1.529,12.927,1.811,19.511,1.67
			c5.922-0.124,11.959,0.453,17.662,1.982c6.247,1.653,10.407,5.941,16.432,7.77c13.406,4.059,30.233,0.78,41.768,9.673
			c2.24,1.72,3.071,4.329,5.555,5.66c2.576,1.394,5.459,2.348,8.309,3.132c4.968,1.352,10.104,1.741,15.127,2.821
			c5.753,1.238,11.87,3.116,16.39,6.799c2.396,1.948,4.251,4.542,4.61,7.542c0.316,2.72,3.342,3.777,5.909,4.913
			c8.203,3.612,17.325,4.239,25.103,8.891c4.942,2.959,9.407,7.842,8.143,13.697c-0.513,2.363-2.481,3.2-0.358,4.967
			c2.56,2.133,5.711,3.664,8.86,4.912c9.348,3.702,26.802,11.919,19.042,24.108c-1.436,2.255-3.641,3.98-6.11,5.199
			c-1.755,0.868,0.292,2.474,1.27,3.461c4.392,4.424,10.747,6.47,14.991,11.14c4.087,4.453,6.012,10.63,2.93,16.065
			c-3.465,6.111-9.862,6.768-15.93,9.371c-6.617,2.842-2.177,7.477,1.126,10.908c4.541,4.715,7.547,11.154,5.341,17.488
			c-4.655,13.395-20.871,11.187-32.182,14.674c-5.315,1.638-11.682,5.543-9.094,11.567c2.721,6.324,1.956,13.412-2.707,18.753
			c-9.252,10.591-24.732,9.777-37.834,9.401c-6.646-0.185-13.479,0.671-19.642,3.051c-2.844,1.101-5.59,2.551-7.858,4.501
			c-3.016,2.598-3.518,5.372-4.708,8.824c-4.2,12.198-18.379,17.746-31.041,18.798c-10.594,0.873-19.871-1.964-30.138-3.544
			c-9.991-1.53-20.581-1-30.204,2.014c-4.54,1.422-9.014,3.459-12.582,6.472c-3.355,2.835-6.008,5.994-9.866,8.336
			c-8.44,5.121-18.698,7.308-28.684,7.308c-10.218,0-20.515-2.297-29.448-6.96c-8.791-4.555-19.201-6.299-29.174-6.299
			c-9.978,0.007-20.411,1.727-29.181,6.341c-8.969,4.698-19.302,7.012-29.561,7.012"/>
		<path id="path144_1_" fill="#010101" d="M-56.889-991.84c0,21.084-37.507,38.177-83.773,38.177
			c-46.266,0-83.777-17.093-83.777-38.177c0-21.086,37.509-38.183,83.777-38.182c46.263,0,83.77,17.1,83.77,38.161"/>
		<path id="path146_1_" fill="#FFCD05" d="M-48.906-853.73c-9.345,0-18.654-1.685-26.928-4.874
			c-10.098-3.896-17.5-9.706-21.413-16.805c-0.432-0.779-0.778-1.359-1.057-1.826c-1.616-2.701-1.888-3.727-2.089-7.833
			l-0.378-7.669l-0.562-12.076l9.103,7.953c2.591,2.26,5.589,4.278,8.915,5.991c9.913,5.102,21.715,7.794,34.13,7.794
			c11.716,0,22.989-2.41,32.6-6.982c3.794-1.807,7.228-4.036,10.206-6.632l9.209-8.016l-0.675,12.189
			c-0.128,2.276-0.263,3.25-0.381,4.107c-0.103,0.756-0.195,1.408-0.296,3.283c-0.635,12.398-11.147,19.985-17.355,23.404
			c-9.504,5.238-20.926,7.998-33.035,7.998"/>
		<path id="path148_1_" fill="#1D1D1B" d="M-107.049-916.651l1.125,24.153c0.073,1.547,0.148,3.088,0.225,4.628l0.15,3.048
			c0.229,4.663,0.628,6.573,2.815,10.234c0.257,0.427,0.575,0.953,0.974,1.683c4.498,8.162,12.823,14.773,24.061,19.112
			c8.864,3.415,18.816,5.219,28.785,5.219c12.976,0,25.258-2.985,35.517-8.634C-1.053-864,6.057-873.828,6.624-884.876
			c0.087-1.631,0.158-2.159,0.252-2.821c0.154-1.119,0.293-2.229,0.421-4.534l1.352-24.383l-18.417,16.033
			c-2.626,2.29-5.665,4.262-9.033,5.862c-8.922,4.248-19.431,6.486-30.388,6.486c-11.598,0-22.585-2.502-31.773-7.223
			c-2.953-1.521-5.606-3.3-7.882-5.29l-18.185-15.909L-107.049-916.651z M-95.622-892.98c2.824,2.464,6.13,4.722,9.949,6.688
			c10.635,5.473,23.248,8.371,36.489,8.371c12.479,0,24.516-2.591,34.814-7.486c4.425-2.103,8.19-4.618,11.377-7.397
			c-0.229,4.154-0.452,3.241-0.675,7.397c-0.447,8.697-7.545,15.233-14.697,19.168c-9.051,4.98-19.81,7.355-30.543,7.355
			c-8.682,0-17.351-1.554-25.074-4.534c-7.337-2.828-14.848-7.399-18.752-14.482c-2.204-3.982-2.3-3.053-2.512-7.425
			c-0.125-2.551-0.255-5.109-0.377-7.66"/>
		<path id="path150_1_" fill="#FFCD05" d="M-49.193-883.79c-12.202,0-23.822-2.356-33.603-6.813
			c-13.669-6.219-20.822-15.876-19.617-26.514c1.054-9.359,8.526-17.408,21.035-22.665c9.474-3.975,20.552-6.073,32.038-6.073
			c11.566,0,22.681,2.131,32.163,6.167c0.846,0.3,2.011,0.77,3.186,1.455c11.642,5.792,18.038,14.137,18.014,23.531
			c-0.008,10.136-7.72,19.189-21.156,24.829c-9.495,3.98-20.581,6.08-32.066,6.08"/>
		<path id="path152_1_" fill="#1D1D1B" d="M-49.337-951.01c-12.166,0-23.935,2.241-34.034,6.482
			c-14.308,6.01-22.891,15.543-24.163,26.849c-1.45,12.794,7.003,24.674,22.61,31.775c10.442,4.755,22.801,7.273,35.734,7.273
			c12.162,0,23.939-2.241,34.05-6.482c15.446-6.484,24.31-17.265,24.322-29.586c0.029-11.405-7.327-21.363-20.724-28.07
			c-1.388-0.798-2.74-1.359-3.761-1.725c-10.078-4.261-21.837-6.51-34.03-6.51 M-49.334-940.694c10.958,0,21.406,2.009,30.311,5.825
			c0.834,0.286,1.768,0.69,2.576,1.178c6.281,3.095,15.348,9.239,15.324,18.985c-0.009,7.967-6.569,15.292-17.996,20.091
			c-8.863,3.715-19.259,5.677-30.067,5.677c-11.453,0-22.342-2.185-31.469-6.348c-11.498-5.229-17.569-12.959-16.628-21.238
			c0.832-7.425,7.206-14.001,17.907-18.488c8.864-3.713,19.255-5.672,30.042-5.672"/>
		<path id="path154_1_" fill="#669A40" d="M54.54-906.52c-9.344,0-18.653-1.683-26.93-4.877
			c-10.092-3.893-17.495-9.699-21.411-16.798c-0.432-0.777-0.777-1.356-1.055-1.823c-1.616-2.699-1.888-3.729-2.094-7.829
			L2.067-957.62l9.139,7.97c2.6,2.267,5.605,4.284,8.927,5.995c9.905,5.097,21.706,7.794,34.128,7.794
			c11.711,0,22.983-2.415,32.601-6.986c3.783-1.798,7.213-4.028,10.198-6.627l9.19-8.007l-0.656,12.17
			c-0.123,2.3-0.258,3.274-0.378,4.13c-0.103,0.763-0.194,1.41-0.297,3.274c-0.627,12.381-11.137,19.973-17.344,23.399
			c-9.498,5.25-20.919,8.009-33.028,8.009"/>
		<path id="path156_1_" fill="#1D1D1B" d="M-3.688-969.47l1.21,24.221c0.128,2.544,0.252,5.083,0.375,7.632
			c0.236,4.677,0.634,6.58,2.817,10.246c0.258,0.425,0.576,0.957,0.974,1.68c4.503,8.162,12.825,14.775,24.066,19.112
			c8.859,3.415,18.815,5.217,28.784,5.217c12.975,0,25.257-2.983,35.518-8.629c12.347-6.81,19.451-16.634,20.011-27.68
			c0.088-1.603,0.162-2.133,0.253-2.8c0.16-1.164,0.294-2.234,0.42-4.562l1.312-24.345l-18.381,16.015
			c-2.631,2.289-5.664,4.259-9.022,5.857c-8.928,4.244-19.44,6.485-30.389,6.485c-11.605,0-22.59-2.502-31.768-7.222
			c-2.955-1.517-5.611-3.299-7.898-5.293l-18.281-15.931L-3.688-969.47z M7.82-945.77c2.822,2.459,6.126,4.719,9.954,6.691
			c10.627,5.47,23.245,8.364,36.489,8.364c12.479,0,24.513-2.589,34.813-7.484c4.425-2.103,8.184-4.623,11.372-7.397
			c-0.225,4.156-0.449,3.241-0.675,7.397c-0.441,8.697-7.54,15.228-14.686,19.173c-9.055,4.98-19.815,7.345-30.548,7.345
			c-8.683,0-17.351-1.549-25.076-4.529c-7.337-2.825-14.85-7.404-18.753-14.477c-2.2-3.98-2.294-3.055-2.512-7.425
			c-0.129-2.551-0.256-5.1-0.381-7.65"/>
		<path id="path158_1_" fill="#669A40" d="M54.252-936.58c-12.202,0-23.821-2.354-33.604-6.808
			c-13.661-6.214-20.81-15.873-19.618-26.507c1.06-9.371,8.533-17.421,21.043-22.671c9.48-3.979,20.554-6.078,32.032-6.078
			c11.554,0,22.673,2.131,32.168,6.167c0.835,0.293,1.991,0.764,3.174,1.454c11.646,5.787,18.042,14.139,18.022,23.533
			c-0.011,10.132-7.72,19.185-21.15,24.829c-9.502,3.99-20.588,6.09-32.07,6.09"/>
		<path id="path160_1_" fill="#1D1D1B" d="M54.105-1003.8c-12.154,0-23.919,2.242-34.028,6.479
			c-14.308,6.008-22.89,15.538-24.167,26.848c-1.439,12.81,7.011,24.684,22.605,31.781c10.445,4.755,22.805,7.268,35.736,7.268
			c12.159,0,23.935-2.241,34.05-6.477c15.451-6.491,24.31-17.272,24.323-29.588c0.022-11.405-7.336-21.372-20.737-28.077
			c-1.393-0.794-2.734-1.354-3.742-1.717c-10.091-4.21-21.853-6.511-34.037-6.511 M54.109-993.483
			c10.959,0,21.406,2.008,30.313,5.827c0.837,0.284,1.765,0.69,2.572,1.178c6.279,3.091,15.344,9.238,15.324,18.983
			c-0.007,7.964-6.576,15.291-17.994,20.092c-8.867,3.713-19.267,5.672-30.07,5.672c-11.455,0-22.338-2.182-31.465-6.342
			C11.291-953.298,5.228-961.04,6.16-969.311c0.839-7.431,7.206-14.001,17.909-18.495c8.867-3.72,19.256-5.68,30.043-5.68"/>
		<path id="path162_1_" fill="#FFFFFF" d="M-140.228-977.28c-11.866,0-32.135-4.675-32.821-22.194
			c-1.347-34.504-15.856-207.499-19.134-246.389l104.659,0.401c-5.692,73.585-18.847,242.28-19.889,249.201
			c-0.876,5.4-5.19,10.599-11.836,14.258c-5.55,3.08-13,4.76-20.98,4.76"/>
		<path id="path164_1_" fill="#010101" d="M-199.668-1252.799c0,0,18.25,215.18,19.75,253.56
			c0.778,19.895,20.491,28.798,39.687,28.798c9.109,0,17.74-1.982,24.297-5.584c8.509-4.683,14.089-11.675,15.309-19.188
			c1.257-7.693,20.525-257.13,20.525-257.13l-119.571-0.5L-199.668-1252.799z M-184.698-1238.999l89.757,0.345
			c-7.568,97.806-18.188,233.04-19.261,241.32c-0.558,3.189-3.75,6.735-8.339,9.264c-4.5,2.469-10.944,3.884-17.681,3.884
			c-1.035,0-25.351-0.176-25.95-15.59c-1.289-32.67-14.349-189.271-18.53-239.17"/>
		<path id="path166_1_" fill="#1D1D1B" d="M-2.712-1359.099c0,75.681-61.364,137.04-137.031,137.04
			c-75.691,0-137.049-61.362-137.049-137.04c0-75.681,61.357-137.04,137.049-137.04c75.663,0,137.031,61.399,137.031,137"/>
		<path id="path168_1_" fill="#CB2027" d="M-49.32-1277.1c-48.802,48.808-127.46,49.283-175.68,1.071
			c-48.221-48.228-47.747-126.89,1.057-175.69c48.804-48.807,127.47-49.281,175.69-1.057c48.212,48.2,47.735,126.9-1.073,175.7"/>
		<path id="path170_1_" fill="#FFFFFF" d="M-64.996-1444.799c19.798,21.892,22.551,47.993,12.677,53.331
			c-9.954,5.529-28.282-5.543-45.289-20.196c-16.711-14.829-27.532-32.958-20.456-45.547c6.89-12.5,33.24-9.601,53.072,12.399"/>
	</g>
	<g>
		<path d="M746.58,419.877h-78c-22.286,0-33.429-11.814-33.429-35.443v-35.442c0-23.629,11.143-35.442,33.429-35.442h78v23.628h-78
			c-7.43,0-11.143,3.939-11.143,11.814v35.442c0,7.877,3.713,11.814,11.143,11.814h78V419.877z"/>
		<path d="M791.151,419.877c-22.286,0-33.429-11.814-33.429-35.443v-35.442c0-23.629,11.143-35.442,33.429-35.442h44.571
			c22.286,0,33.429,11.813,33.429,35.442v35.442c0,23.629-9.287,35.443-27.857,35.443H791.151z M791.151,396.248h44.571
			c7.427,0,11.143-3.938,11.143-11.814v-35.442c0-7.875-3.716-11.814-11.143-11.814h-44.571c-7.43,0-11.143,3.939-11.143,11.814
			v35.442C780.008,392.311,783.722,396.248,791.151,396.248z"/>
		<path d="M880.293,419.877V313.549h78c22.286,0,33.428,11.813,33.428,35.442v70.886h-22.285v-70.886
			c0-7.875-3.716-11.814-11.143-11.814h-55.714v82.7H880.293z"/>
		<path d="M1002.865,419.877V313.549h100.285v23.628h-78v17.722h55.715v23.629h-55.715v41.35H1002.865z"/>
		<path d="M1114.293,419.877V313.549h22.286v106.328H1114.293z"/>
		<path d="M1259.15,354.898v64.979h-78c-22.286,0-33.428-11.814-33.428-35.443v-35.442c0-23.629,11.142-35.442,33.428-35.442h78
			v23.628h-78c-7.429,0-11.143,3.939-11.143,11.814v35.442c0,7.877,3.714,11.814,11.143,11.814h55.715v-17.721h-27.857v-23.629
			H1259.15z M1259.15,354.898v64.979h-78c-22.286,0-33.428-11.814-33.428-35.443v-35.442c0-23.629,11.142-35.442,33.428-35.442h78
			v23.628h-78c-7.429,0-11.143,3.939-11.143,11.814v35.442c0,7.877,3.714,11.814,11.143,11.814h55.715v-17.721h-27.857v-23.629
			H1259.15z"/>
	</g>
</g>
<g id="Layer_3">
	<g>
		<g id="g5">
			<path id="path7" fill="#231F20" d="M1703.306,5.828c-5.364,0.156-10.711,0.667-16.031,1.344
				c-1.316,6.03-2.605,12.067-3.938,18.094c-4.273,0.921-8.452,1.733-12.656,2.938c-3.742-4.941-7.615-9.784-11.406-14.688
				c-13.092,4.318-25.643,10.34-37.219,17.969c1.439,6.02,2.861,12.045,4.312,18.062c-3.852,2.035-7.22,7.11-11.046,7.605
				c-5.241-2.605-10.491-5.194-15.735-7.793c-9.955,9.588-18.592,20.47-25.812,32.312c3.926,4.804,7.861,9.599,11.781,14.406
				c-2.613,3.476-3.359,9.543-6.656,11.656c-5.865-0.056-11.729-0.126-17.594-0.188c-4.771,12.959-7.947,26.593-9.156,40.312
				c5.613,2.628,11.235,5.237,16.844,7.875c-0.844,4.266,1.039,10.028-0.904,13.366c-5.312,2.485-10.627,4.964-15.939,7.446
				c1.236,13.756,4.375,27.312,9.156,40.312c6.197-0.057,12.396-0.154,18.594-0.188c1.141,4.2,5.344,8.58,5.025,12.433
				c-3.715,4.545-7.434,9.087-11.15,13.63c7.219,11.842,15.863,22.726,25.812,32.312c5.539-2.756,11.102-5.465,16.625-8.25
				c2.854,3.296,8.528,5.439,9.92,9.034c-1.362,5.696-2.717,11.395-4.076,17.091c11.605,7.664,24.013,13.605,37.219,18
				c3.797-4.89,7.634-9.748,11.406-14.656c4.016,1.723,10.02,1.168,12.871,3.82c1.242,5.716,2.481,11.433,3.723,17.148
				c13.689,1.882,27.619,1.856,41.312,0.031c1.313-6.052,2.618-12.105,3.938-18.156c4.385,0.074,9.948-3.714,13.438-1.812
				c3.995,3.998,7.051,11.185,11.601,13.297c12.794-4.309,25.003-10.263,36.274-17.641c-1.44-6.03-2.86-12.066-4.312-18.094
				c3.827-2.004,7.207-7.113,11.015-7.605c5.252,2.615,10.512,5.215,15.767,7.824c9.939-9.684,18.619-20.443,25.75-32.312
				c-3.906-4.802-7.813-9.603-11.719-14.406c2.587-3.56,3.345-9.483,6.625-11.688c5.864,0.056,11.729,0.126,17.594,0.188
				c4.809-12.918,7.921-26.532,9.188-40.312c-5.613-2.627-11.235-5.236-16.844-7.875c0.187-4.312,0.185-8.626,0-12.938
				c5.608-2.638,11.23-5.248,16.844-7.875c-1.28-13.77-4.379-27.408-9.188-40.281c-6.198,0.058-12.396,0.154-18.594,0.188
				c-1.205-4.222-5.296-8.559-4.994-12.464c3.695-4.543,7.392-9.086,11.088-13.63c-7.167-11.955-15.854-22.679-25.75-32.312
				c-5.549,2.757-11.123,5.463-16.656,8.25c-2.858-3.276-8.551-5.401-9.888-9.034c1.361-5.707,2.716-11.415,4.075-17.122
				c-11.541-7.534-24.149-13.674-37.25-17.938c-3.796,4.879-7.636,9.726-11.406,14.625c-4.003-1.709-10.087-1.104-12.876-3.851
				c-1.243-5.705-2.478-11.412-3.718-17.118C1720.21,6.069,1711.755,5.54,1703.306,5.828z M1706.212,12.14
				c5.717-0.054,11.44,0.189,17.125,0.812c1.315,5.977,2.602,11.959,3.906,17.938c6.888,1.015,13.674,2.572,20.312,4.656
				c3.756-4.837,7.554-9.642,11.281-14.5c9.722,3.485,18.955,7.979,27.75,13.344c-1.427,5.969-2.854,11.938-4.281,17.906
				c5.723,3.937,11.241,8.221,16.281,12.969c5.488-2.72,10.984-5.427,16.469-8.156c7.154,7.3,13.561,15.428,19.219,24.062
				c-3.9,4.729-7.746,9.504-11.625,14.25c3.458,6.038,6.524,12.286,9.031,18.781c6.125-0.058,12.25-0.156,18.375-0.188
				c3.362,9.711,5.567,19.774,6.875,29.969c-5.557,2.595-11.104,5.21-16.656,7.812c0.498,6.939,0.494,13.905,0,20.844
				c5.553,2.593,11.102,5.192,16.656,7.781c-1.304,10.205-3.516,20.279-6.875,30c-6.125-0.03-12.25-0.13-18.375-0.188
				c-2.533,6.497-5.537,12.698-9.031,18.75c3.879,4.747,7.725,9.521,11.625,14.25c-5.644,8.641-12.025,16.717-19.219,24.062
				c-5.484-2.729-10.98-5.436-16.469-8.156c-5.061,4.76-10.596,9.063-16.312,13c1.427,5.959,2.855,11.917,4.281,17.875
				c-8.777,5.368-18.002,9.88-27.719,13.344c-3.727-4.858-7.526-9.662-11.281-14.5c-6.624,2.096-13.408,3.637-20.312,4.656
				c-1.304,5.979-2.592,11.961-3.906,17.938c-10.231,1.106-20.58,1.079-30.812,0c-1.314-5.977-2.602-11.959-3.906-17.938
				c-6.91-1.015-13.654-2.569-20.312-4.656c-3.758,4.847-7.541,9.672-11.281,14.531c-9.682-3.542-18.941-8.012-27.719-13.375
				c1.428-5.969,2.854-11.938,4.281-17.906c-5.75-3.953-11.236-8.218-16.312-12.969c-5.479,2.721-10.963,5.429-16.438,8.156
				c-7.191-7.345-13.652-15.416-19.188-24.062c3.853-4.76,7.73-9.498,11.594-14.25c-3.49-6.023-6.521-12.29-9.031-18.781
				c-6.135,0.058-12.271,0.157-18.406,0.188c-3.295-9.675-5.59-19.736-6.812-29.969c5.535-2.618,11.084-5.206,16.625-7.812
				c-0.518-6.937-0.512-13.906,0-20.844c-5.541-2.597-11.092-5.169-16.625-7.781c1.214-10.258,3.543-20.327,6.812-30.031
				c6.135,0.103,12.271,0.142,18.406,0.219c2.533-6.472,5.539-12.738,9.031-18.75c-3.863-4.751-7.74-9.49-11.594-14.25
				c5.501-8.671,12.052-16.647,19.125-24.093c5.482,2.765,11.003,5.453,16.5,8.188c5.078-4.753,10.564-9.014,16.312-12.969
				c-1.428-5.969-2.854-11.938-4.281-17.906c8.775-5.344,18.008-9.806,27.719-13.375c3.739,4.86,7.524,9.685,11.281,14.531
				c6.662-2.068,13.413-3.605,20.312-4.656c1.305-5.979,2.592-11.961,3.906-17.938C1697.07,12.453,1701.64,12.205,1706.212,12.14z
				 M1705.65,117.89c-23.703,0.599-43.867,22.909-42.031,46.625c0.631,23.738,22.894,43.859,46.625,42.031
				c23.791-0.675,43.859-22.896,42.031-46.625C1751.531,136.07,1729.551,116.167,1705.65,117.89z M1706.962,124.202
				c21.739-1.164,41.188,19.247,38.875,40.906c-1.013,21.319-22.565,38.582-43.656,34.656c-21.555-2.67-37.125-26.08-31.031-47.062
				C1675.065,136.654,1690.324,124.429,1706.962,124.202z"/>
		</g>
	</g>
</g>
</svg>
